<?xml version="1.0" standalone="no"?>
<!DOCTYPE svg PUBLIC "-//W3C//DTD SVG 20010904//EN"
 "http://www.w3.org/TR/2001/REC-SVG-20010904/DTD/svg10.dtd">
<svg version="1.0" xmlns="http://www.w3.org/2000/svg"
 width="200.000000pt" height="200.000000pt" viewBox="0 0 200.000000 200.000000"
 preserveAspectRatio="xMidYMid meet">
<metadata>
Created by potrace 1.11, written by Peter Selinger 2001-2013
</metadata>
<g transform="translate(0.000000,200.000000) scale(0.100000,-0.100000)"
fill="#000000" stroke="none">
<path d="M1710 1972 c0 -124 138 -262 262 -262 l28 0 0 145 0 145 -145 0 -145
0 0 -28z"/>
<path d="M30 765 l0 -765 110 0 110 0 2 590 3 590 233 -290 c187 -233 238
-290 257 -290 19 0 69 57 257 293 l233 292 3 -592 2 -593 110 0 110 0 0 765 0
765 -105 0 -104 0 -252 -312 c-138 -172 -253 -312 -256 -311 -2 1 -117 142
-255 313 l-251 310 -103 0 -104 0 0 -765z"/>
</g>
</svg>
